<svg width="25" height="25" viewBox="0 0 25 25" fill="none" xmlns="http://www.w3.org/2000/svg">
<path d="M16.5296 4.54297C19.375 4.54297 21.681 6.8985 21.681 10.1963C21.681 16.7917 14.6564 20.5607 12.3149 21.974C9.97333 20.5607 2.94873 16.7917 2.94873 10.1963C2.94873 6.8985 5.29027 4.54297 8.1001 4.54297C9.84219 4.54297 11.3782 5.48518 12.3149 6.4274C13.2514 5.48518 14.7875 4.54297 16.5296 4.54297ZM13.1897 19.2453C14.0148 18.7215 14.7594 18.2004 15.4563 17.6426C18.2483 15.4096 19.8077 12.9692 19.8077 10.1963C19.8077 7.97263 18.3682 6.4274 16.5296 6.4274C15.5218 6.4274 14.4316 6.96446 13.6392 7.75969L12.3149 9.09198L10.9905 7.75969C10.1981 6.96446 9.10789 6.4274 8.1001 6.4274C6.28307 6.4274 4.82196 7.98771 4.82196 10.1963C4.82196 12.9702 6.38235 15.4096 9.17252 17.6426C9.8703 18.2004 10.6149 18.7215 11.4401 19.2444C11.7201 19.4225 11.9974 19.593 12.3149 19.7833C12.6323 19.593 12.9096 19.4225 13.1897 19.2453Z" fill="white"/>
</svg>
