<svg width="44" height="44" viewBox="0 0 44 44" fill="none" xmlns="http://www.w3.org/2000/svg">
<path d="M0 0H38.0005C41.3142 0 44.0005 2.68629 44.0005 6V37.2417C44.0005 40.5554 41.3142 43.2417 38.0005 43.2417H0V0Z" fill="#F5C34B"/>
<path d="M19.4614 14.3643C15.825 14.3643 12.8628 17.2754 12.8628 20.8491C12.8628 24.4228 15.825 27.3396 19.4614 27.3396C21.0147 27.3396 22.4432 26.8047 23.5722 25.9165L26.3208 28.6163C26.4595 28.747 26.6447 28.8191 26.8369 28.8171C27.029 28.8152 27.2127 28.7394 27.3487 28.606C27.4846 28.4726 27.562 28.2921 27.5643 28.1033C27.5665 27.9145 27.4934 27.7323 27.3606 27.5958L24.612 24.8946C25.5165 23.7834 26.0615 22.3773 26.0615 20.8491C26.0615 17.2754 23.0979 14.3643 19.4614 14.3643V14.3643ZM19.4614 15.8057C22.3052 15.8057 24.5934 18.0544 24.5934 20.8491C24.5934 23.6439 22.3052 25.8982 19.4614 25.8982C16.6177 25.8982 14.3295 23.6439 14.3295 20.8491C14.3295 18.0544 16.6177 15.8057 19.4614 15.8057Z" fill="#443297"/>
</svg>
